# xmcd
#
# Track frame offsets:
# 150
# 15791
# 28738
# 41984
# 54948
# 66547
# 79372
# 90503
# 105824
# 117170
# 127370
# 139224
# 150454
# 165444
# 175199
# 188872
# 201735
# 211648
# 224947
# 238451
# 263725
# 276825
# 293436
# 306282
# 318934
#
# Disc length: 4475 seconds
#
#
# Revision: 0
# Processed by: cddbd v1.4PL0 Copyright (c) Steve Scherf et al.
# Submitted via: FreeRIP 2.30 
#
DISCID=73117919
DTITLE=Various Artist - Soul Music Hits1
DYEAR=2002
DGENRE=Soul
TTITLE0=Eddie Floyd - Knock On Wood
TTITLE1=Rose Rice - Carwash
TTITLE2=Sam and Dave - Soul Man
TTITLE3=The Flirtations - Stop  In The Name Of Love
TTITLE4=The Foundations - Baby Now That I Found You
TTITLE5=Detroit Emeralds - You Want It You Got It
TTITLE6=Calrence Carter - Slip Away
TTITLE7=Mary Well - Mt Guy
TTITLE8=Lloydd Price- Where Are You On Our Wedding Day
TTITLE9=Tavares - Whodunnit
TTITLE10=The Fantastics - Something Old, Something New
TTITLE11=Percy Sledge - Take Time To Know Her
TTITLE12=Brook Benton - Rainy Night In Georgia
TTITLE13=The Tams - Hey Girl, Don't Bother Me
TTITLE14=The Ohio Palyers - Mother In Law
TTITLE15=The Whispers - Seemlike I Gotta Do Wrong
TTITLE16=The Drifters - Save The Last Dance For Me
TTITLE17=The Paltters - Twilight Time
TTITLE18=Tommy Hint - Loving The Loosing Side
TTITLE19=Sister Sledge - Lost In Music
TTITLE20=Sam and Dave - I Tank You
TTITLE21=Mary Wells -You Beat Me To The Punch
TTITLE22=Percy Sledge - When A Man Loves A Woman
TTITLE23=Lloyd Price - Stagger Lee
TTITLE24=Rose Royce - Is It Love You're After
EXTD=
EXTT0=
EXTT1=
EXTT2=
EXTT3=
EXTT4=
EXTT5=
EXTT6=
EXTT7=
EXTT8=
EXTT9=
EXTT10=
EXTT11=
EXTT12=
EXTT13=
EXTT14=
EXTT15=
EXTT16=
EXTT17=
EXTT18=
EXTT19=
EXTT20=
EXTT21=
EXTT22=
EXTT23=
EXTT24=
PLAYORDER=
